<?xml version="1.0" encoding="UTF-8" standalone="no"?>

<svg
   version="1.1"
   id="svg606"
   xml:space="preserve"
   width="32"
   height="32"
   viewBox="0 0 32 32"
   xmlns="http://www.w3.org/2000/svg"
   xmlns:svg="http://www.w3.org/2000/svg"><defs
     id="defs610"><clipPath
       clipPathUnits="userSpaceOnUse"
       id="clipPath620"><path
         d="M 0,24 H 24 V 0 H 0 Z"
         id="path618" /></clipPath></defs><g
     id="g612"
     transform="matrix(1.3333333,0,0,-1.3333333,0,32)"><g
       id="g614"><g
         id="g616"
         clip-path="url(#clipPath620)"><g
           id="g622"
           transform="translate(19.0967,22.1621)"><path
             d="M 0,0 3.531,-4.942 C 4.047,-5.665 4.025,-6.643 3.476,-7.341 L -7.097,-20.662 -17.669,-7.341 c -0.549,0.698 -0.571,1.676 -0.055,2.399 L -14.193,0 c 0.375,0.526 0.981,0.838 1.627,0.838 H -1.627 C -0.981,0.838 -0.375,0.526 0,0 Z"
             style="fill:none;stroke:#e7d7c6;stroke-width:2;stroke-linecap:butt;stroke-linejoin:miter;stroke-miterlimit:10;stroke-dasharray:none;stroke-opacity:1"
             id="path624" /></g><g
           id="g626"
           transform="translate(1,16)"><path
             d="M 0,0 H 22"
             style="fill:none;stroke:#e7d7c6;stroke-width:2;stroke-linecap:butt;stroke-linejoin:miter;stroke-miterlimit:10;stroke-dasharray:none;stroke-opacity:1"
             id="path628" /></g><g
           id="g630"
           transform="translate(12,2.5)"><path
             d="m 0,0 -4,13.5 2,7"
             style="fill:none;stroke:#e7d7c6;stroke-width:2;stroke-linecap:butt;stroke-linejoin:miter;stroke-miterlimit:10;stroke-dasharray:none;stroke-opacity:1"
             id="path632" /></g><g
           id="g634"
           transform="translate(12,2.5)"><path
             d="m 0,0 4,13.5 -2,7"
             style="fill:none;stroke:#e7d7c6;stroke-width:2;stroke-linecap:butt;stroke-linejoin:miter;stroke-miterlimit:10;stroke-dasharray:none;stroke-opacity:1"
             id="path636" /></g></g></g></g></svg>
