<svg width="135" height="24" viewBox="0 0 135 24" fill="none" xmlns="http://www.w3.org/2000/svg">
<path d="M39.728 20H41.36V12.392H47.552C50.648 12.272 50.84 14.936 50.984 17.336C51.032 18.056 51.032 19.328 51.44 20H53.24C52.52 19.136 52.52 16.784 52.448 15.608C52.328 13.568 51.68 12.032 49.448 11.744V11.696C51.656 11.264 52.784 9.488 52.784 7.328C52.784 4.232 50.408 2.864 47.576 2.864H39.728V20ZM41.36 4.256H47.456C49.904 4.256 51.152 5.576 51.152 7.664C51.152 9.752 49.448 11 47.456 11H41.36V4.256ZM55.7358 20H67.6878V18.608H57.3678V11.84H66.9198V10.448H57.3678V4.256H67.5678V2.864H55.7358V20ZM69.9144 20H71.5464V5.192H71.5944L77.4744 20H79.0104L84.8664 5.192H84.9144V20H86.5464V2.864H84.1464L78.2424 17.888L72.3144 2.864H69.9144V20ZM89.0426 11.432C89.0426 16.112 91.7306 20.36 97.1306 20.36C102.507 20.36 105.195 16.112 105.195 11.432C105.195 6.752 102.507 2.504 97.1306 2.504C91.7306 2.504 89.0426 6.752 89.0426 11.432ZM90.6746 11.432C90.6746 7.688 92.5946 3.896 97.1306 3.896C101.643 3.896 103.563 7.688 103.563 11.432C103.563 15.176 101.643 18.968 97.1306 18.968C92.5946 18.968 90.6746 15.176 90.6746 11.432ZM112.208 20H114.104L120.464 2.864H118.736L113.216 18.2H113.168L107.6 2.864H105.848L112.208 20ZM121.97 20H133.922V18.608H123.602V11.84H133.154V10.448H123.602V4.256H133.802V2.864H121.97V20Z" fill="#000F08"/>
<path d="M10.8518 12.0037L0.228844 22.7013C-0.0662813 22.9985 -0.0662813 23.48 0.228844 23.7772C0.376219 23.926 0.569719 24 0.762844 24C0.956344 24 1.14947 23.926 1.29684 23.7772L11.9997 12.9991L22.7026 23.7772C22.8503 23.926 23.0435 24 23.2366 24C23.4297 24 23.6232 23.926 23.7706 23.7772C24.0657 23.48 24.0657 22.9985 23.7706 22.7013L13.148 12.0037L23.7777 1.2985C24.0728 1.0013 24.0728 0.519814 23.7777 0.222616C23.4826 -0.0742052 23.0045 -0.0742052 22.7097 0.222616L12.0001 11.0082L1.28934 0.222993C0.994219 -0.0738276 0.516469 -0.0738276 0.221344 0.222993C-0.0737813 0.520192 -0.0737813 1.00168 0.221344 1.29887L10.8518 12.0037Z" fill="#1D1D1B"/>
</svg>
